# xmcd
#
# Track frame offsets: 
#        150
#        31710
#        54581
#        73998
#        96479
#        120904
#
# Disc length: 1905 seconds
#
# Revision: 1
# Processed by: cddbd v1.5.2PL0 Copyright (c) Steve Scherf et al.
# Submitted via: ExactAudioCopy v0.99pb4
#
DISCID=4c076f06
DTITLE=Joss Stone - Mind, Body and Soul (Bonus Live CD)
DYEAR=2005
DGENRE=R&B
TTITLE0=Super Duper Love
TTITLE1=Fell In Love With A Boy
TTITLE2=Spoiled
TTITLE3=Less Is More
TTITLE4=Right To Be Wrong
TTITLE5=You Had Me
EXTD=
EXTT0=
EXTT1=
EXTT2=
EXTT3=
EXTT4=
EXTT5=
PLAYORDER=
